<svg version="1.1" id="Layer_1" xmlns="http://www.w3.org/2000/svg" xmlns:xlink="http://www.w3.org/1999/xlink" x="0px" y="0px"
	 width="100%" viewBox="0 0 703 355" enable-background="new 0 0 703 355" xml:space="preserve">
<path fill="#000000" opacity="1.000000" stroke="none" 
	d="
M426.000000,356.000000 
	C284.033417,356.000000 142.566818,356.000000 1.050111,356.000000 
	C1.050111,237.728027 1.050111,119.456032 1.050111,1.092018 
	C235.216629,1.092018 469.433289,1.092018 703.824951,1.092018 
	C703.824951,119.333130 703.824951,237.666534 703.824951,356.000000 
	C611.455994,356.000000 518.977966,356.000000 426.000000,356.000000 
M295.963135,152.979935 
	C295.963135,152.979935 295.941559,152.915680 295.156311,153.323730 
	C295.156311,176.517319 295.156311,199.710907 295.156311,222.669739 
	C323.753784,222.669739 351.789093,222.669739 380.004181,222.669739 
	C380.004181,207.431763 380.025726,192.478210 379.943970,177.525238 
	C379.939636,176.731628 379.062225,175.942795 377.718750,174.988037 
	C360.215759,174.999527 342.712738,175.011017 325.027405,174.094086 
	C325.019714,158.815796 325.040771,143.537354 324.958984,128.259460 
	C324.950958,126.763481 324.309875,125.270897 324.027374,123.072327 
	C323.876648,122.120857 323.678558,120.332504 323.582001,120.337975 
	C318.791840,120.609047 314.007507,121.008209 309.239227,121.542473 
	C309.061340,121.562408 309.049133,123.061272 308.179962,124.297913 
	C308.179962,133.499542 308.179962,142.701187 308.179962,151.376663 
	C303.476868,151.990829 299.686096,152.485855 295.963135,152.979935 
M428.974304,195.132782 
	C428.928345,191.107513 428.882385,187.082230 428.635559,182.193909 
	C415.073151,182.134354 401.510773,182.061661 387.948364,182.059250 
	C387.354401,182.059143 386.760284,182.702652 386.019775,183.956924 
	C386.062592,187.983643 386.105408,192.010345 386.478607,196.834839 
	C399.772064,196.861572 413.065521,196.903732 426.358887,196.878082 
	C427.188232,196.876480 428.016541,196.343292 428.974304,195.132782 
M428.694824,154.200851 
	C415.124176,154.135498 401.553528,154.057007 387.982849,154.047363 
	C387.367554,154.046921 386.751801,154.668289 386.010712,155.917114 
	C386.047028,159.928482 386.083313,163.939835 386.451935,168.752884 
	C399.932617,168.816879 413.413330,168.894608 426.894043,168.903397 
	C427.553101,168.903824 428.212585,168.300491 428.983002,167.062988 
	C428.938416,163.069626 428.893829,159.076263 428.694824,154.200851 
M437.221100,167.410477 
	C437.186981,184.278534 437.152863,201.146591 436.987823,218.866592 
	C436.504028,222.122894 437.973236,223.249405 441.143555,223.028259 
	C444.408813,222.800522 447.697357,222.906998 451.786438,222.553665 
	C451.875916,210.996567 451.932312,199.439011 452.096039,187.882965 
	C452.116821,186.416702 452.699249,184.958405 452.960693,184.179504 
	C458.580750,196.172379 464.188049,208.171295 469.845367,220.146561 
	C470.295135,221.098618 471.066803,222.615341 471.730133,222.637558 
	C477.594940,222.833939 483.469086,222.751556 489.827759,222.751556 
	C489.175995,220.406448 488.987427,218.924744 488.375366,217.645691 
	C478.874664,197.792068 469.358948,177.945190 459.688904,158.173935 
	C459.026123,156.818878 457.093536,155.174088 455.785248,155.202820 
	C450.049408,155.328705 444.325989,156.021286 437.952301,156.563248 
	C437.952301,160.040421 437.952301,163.490585 437.221100,167.410477 
M338.911377,265.276154 
	C333.220367,263.949310 327.381714,263.062531 321.866547,261.211639 
	C306.414764,256.026062 293.093903,247.615845 281.983643,235.385818 
	C265.199036,216.909561 257.255463,195.531219 260.130249,170.784286 
	C262.786469,147.918625 272.897461,128.917831 291.233093,114.211067 
	C307.534485,101.135948 325.886871,94.032768 346.434204,92.006538 
	C353.700989,91.289948 354.247009,90.889938 354.962555,83.750038 
	C355.683594,76.555450 353.995148,74.515259 346.607910,75.095665 
	C339.302155,75.669647 331.951843,76.471039 324.796417,77.995720 
	C310.481323,81.045982 297.288727,87.220085 285.452393,95.608665 
	C275.598450,102.592278 267.044556,111.196983 260.012512,121.279259 
	C249.812424,135.903778 243.550964,151.985291 242.103958,169.629929 
	C241.062546,182.328705 242.162308,195.021378 245.900818,207.416061 
	C250.448212,222.492523 257.968567,235.782425 268.686676,247.248779 
	C278.255493,257.485535 289.516846,265.358276 302.275604,271.225006 
	C316.695129,277.855377 331.726685,281.596436 347.596466,281.941010 
	C351.415009,282.023956 353.503845,280.431122 352.991577,276.333740 
	C352.686310,273.892120 352.504761,271.427673 352.038940,269.017700 
	C351.884674,268.219543 351.098907,267.022736 350.461304,266.924896 
	C346.842133,266.369751 343.180359,266.092468 338.911377,265.276154 
M426.243439,222.947983 
	C427.108948,222.131668 428.656830,221.365860 428.721619,220.490295 
	C428.999237,216.738602 428.839935,212.954605 428.839935,209.162018 
	C414.366211,209.162018 400.298431,209.162018 386.181793,209.162018 
	C386.181793,213.839066 386.181793,218.246979 386.181793,222.951874 
	C399.378723,222.951874 412.332031,222.951874 426.243439,222.947983 
z"/>
<path fill="#17398A" opacity="1.000000" stroke="none" 
	d="
M339.222229,265.498413 
	C343.180359,266.092468 346.842133,266.369751 350.461304,266.924896 
	C351.098907,267.022736 351.884674,268.219543 352.038940,269.017700 
	C352.504761,271.427673 352.686310,273.892120 352.991577,276.333740 
	C353.503845,280.431122 351.415009,282.023956 347.596466,281.941010 
	C331.726685,281.596436 316.695129,277.855377 302.275604,271.225006 
	C289.516846,265.358276 278.255493,257.485535 268.686676,247.248779 
	C257.968567,235.782425 250.448212,222.492523 245.900818,207.416061 
	C242.162308,195.021378 241.062546,182.328705 242.103958,169.629929 
	C243.550964,151.985291 249.812424,135.903778 260.012512,121.279259 
	C267.044556,111.196983 275.598450,102.592278 285.452393,95.608665 
	C297.288727,87.220085 310.481323,81.045982 324.796417,77.995720 
	C331.951843,76.471039 339.302155,75.669647 346.607910,75.095665 
	C353.995148,74.515259 355.683594,76.555450 354.962555,83.750038 
	C354.247009,90.889938 353.700989,91.289948 346.434204,92.006538 
	C325.886871,94.032768 307.534485,101.135948 291.233093,114.211067 
	C272.897461,128.917831 262.786469,147.918625 260.130249,170.784286 
	C257.255463,195.531219 265.199036,216.909561 281.983643,235.385818 
	C293.093903,247.615845 306.414764,256.026062 321.866547,261.211639 
	C327.381714,263.062531 333.220367,263.949310 339.222229,265.498413 
z"/>
<path fill="#1EDDA0" opacity="1.000000" stroke="none" 
	d="
M325.209747,175.022522 
	C342.712738,175.011017 360.215759,174.999527 378.249084,175.520874 
	C378.847046,189.697800 378.765839,203.345230 379.069977,216.984039 
	C379.165405,221.264206 377.622009,222.290161 373.602875,222.264694 
	C349.469879,222.111832 325.334808,222.099731 301.202087,222.272858 
	C296.972595,222.303207 295.869232,220.862183 295.898773,216.813675 
	C296.054321,195.515381 295.953430,174.215210 295.941559,152.915680 
	C295.941559,152.915680 295.963135,152.979935 296.394623,153.067993 
	C300.738892,153.156067 304.651672,153.156067 308.959717,153.156067 
	C308.959717,142.987503 308.959717,133.429214 308.959717,123.870934 
	C309.049133,123.061272 309.061340,121.562408 309.239227,121.542473 
	C314.007507,121.008209 318.791840,120.609047 323.582001,120.337975 
	C323.678558,120.332504 323.876648,122.120857 323.952362,123.907921 
	C323.910431,139.668976 323.901489,154.594788 324.030487,169.519409 
	C324.046356,171.357040 324.798676,173.188309 325.209747,175.022522 
z"/>
<path fill="#17398A" opacity="1.000000" stroke="none" 
	d="
M450.975708,222.867233 
	C447.697357,222.906998 444.408813,222.800522 441.143555,223.028259 
	C437.973236,223.249405 436.504028,222.122894 437.277344,218.089783 
	C437.695343,200.522217 437.823822,183.731476 437.952301,166.940735 
	C437.952301,163.490585 437.952301,160.040421 437.952301,156.563248 
	C444.325989,156.021286 450.049408,155.328705 455.785248,155.202820 
	C457.093536,155.174088 459.026123,156.818878 459.688904,158.173935 
	C469.358948,177.945190 478.874664,197.792068 488.375366,217.645691 
	C488.987427,218.924744 489.175995,220.406448 489.827759,222.751556 
	C483.469086,222.751556 477.594940,222.833939 471.730133,222.637558 
	C471.066803,222.615341 470.295135,221.098618 469.845367,220.146561 
	C464.188049,208.171295 458.580750,196.172379 452.930542,183.479004 
	C449.411133,181.107559 451.031616,184.396027 451.025269,185.073502 
	C450.907593,197.670471 450.959503,210.269012 450.975708,222.867233 
z"/>
<path fill="#153889" opacity="1.000000" stroke="none" 
	d="
M386.119629,167.951202 
	C386.083313,163.939835 386.047028,159.928482 386.531250,155.468292 
	C400.984253,155.040604 414.916779,155.061752 428.849274,155.082901 
	C428.893829,159.076263 428.938416,163.069626 428.468201,167.540405 
	C414.008789,167.995621 400.064209,167.973404 386.119629,167.951202 
z"/>
<path fill="#153889" opacity="1.000000" stroke="none" 
	d="
M386.148224,196.037064 
	C386.105408,192.010345 386.062592,187.983643 386.548035,183.488647 
	C400.996338,183.032562 414.916382,183.044769 428.836426,183.056976 
	C428.882385,187.082230 428.928345,191.107513 428.452698,195.618195 
	C414.003479,196.081436 400.075836,196.059250 386.148224,196.037064 
z"/>
<path fill="#92EAD1" opacity="1.000000" stroke="none" 
	d="
M295.548950,153.119705 
	C295.953430,174.215210 296.054321,195.515381 295.898773,216.813675 
	C295.869232,220.862183 296.972595,222.303207 301.202087,222.272858 
	C325.334808,222.099731 349.469879,222.111832 373.602875,222.264694 
	C377.622009,222.290161 379.165405,221.264206 379.069977,216.984039 
	C378.765839,203.345230 378.847046,189.697800 378.685303,175.602722 
	C379.062225,175.942795 379.939636,176.731628 379.943970,177.525238 
	C380.025726,192.478210 380.004181,207.431763 380.004181,222.669739 
	C351.789093,222.669739 323.753784,222.669739 295.156311,222.669739 
	C295.156311,199.710907 295.156311,176.517319 295.548950,153.119705 
z"/>
<path fill="#5670AA" opacity="1.000000" stroke="none" 
	d="
M425.764404,222.949921 
	C412.332031,222.951874 399.378723,222.951874 386.181793,222.951874 
	C386.181793,218.246979 386.181793,213.839066 386.181793,209.162018 
	C400.298431,209.162018 414.366211,209.162018 428.839935,209.162018 
	C428.839935,212.954605 428.999237,216.738602 428.721619,220.490295 
	C428.656830,221.365860 427.108948,222.131668 425.764404,222.949921 
M387.137115,212.860123 
	C387.125092,213.856445 387.241180,214.874054 387.079651,215.845520 
	C386.219666,221.018723 388.522980,222.365250 393.466309,222.189453 
	C403.418427,221.835510 413.397705,221.878616 423.354156,222.164337 
	C428.548218,222.313400 428.188721,219.225021 428.330231,215.732147 
	C428.484528,211.923508 427.662750,209.946945 423.184662,210.069946 
	C412.729645,210.357147 402.260284,210.088501 391.799683,210.242966 
	C390.267731,210.265594 388.751770,211.371994 387.137115,212.860123 
z"/>
<path fill="#5670AA" opacity="1.000000" stroke="none" 
	d="
M437.586700,167.175598 
	C437.823822,183.731476 437.695343,200.522217 437.342834,217.663803 
	C437.152863,201.146591 437.186981,184.278534 437.586700,167.175598 
z"/>
<path fill="#92EAD1" opacity="1.000000" stroke="none" 
	d="
M325.118591,174.558304 
	C324.798676,173.188309 324.046356,171.357040 324.030487,169.519409 
	C323.901489,154.594788 323.910431,139.668976 323.919983,124.260124 
	C324.309875,125.270897 324.950958,126.763481 324.958984,128.259460 
	C325.040771,143.537354 325.019714,158.815796 325.118591,174.558304 
z"/>
<path fill="#5670AA" opacity="1.000000" stroke="none" 
	d="
M451.381104,222.710449 
	C450.959503,210.269012 450.907593,197.670471 451.025269,185.073502 
	C451.031616,184.396027 449.411133,181.107559 452.960938,183.137466 
	C452.699249,184.958405 452.116821,186.416702 452.096039,187.882965 
	C451.932312,199.439011 451.875916,210.996567 451.381104,222.710449 
z"/>
<path fill="#EDEDFE" opacity="1.000000" stroke="none" 
	d="
M428.772034,154.641876 
	C414.916779,155.061752 400.984253,155.040604 386.593994,155.009735 
	C386.751801,154.668289 387.367554,154.046921 387.982849,154.047363 
	C401.553528,154.057007 415.124176,154.135498 428.772034,154.641876 
z"/>
<path fill="#5670AA" opacity="1.000000" stroke="none" 
	d="
M386.285767,168.352051 
	C400.064209,167.973404 414.008789,167.995621 428.412628,167.998077 
	C428.212585,168.300491 427.553101,168.903824 426.894043,168.903397 
	C413.413330,168.894608 399.932617,168.816879 386.285767,168.352051 
z"/>
<path fill="#EDEDFE" opacity="1.000000" stroke="none" 
	d="
M428.735992,182.625443 
	C414.916382,183.044769 400.996338,183.032562 386.621277,183.033356 
	C386.760284,182.702652 387.354401,182.059143 387.948364,182.059250 
	C401.510773,182.061661 415.073151,182.134354 428.735992,182.625443 
z"/>
<path fill="#92EAD1" opacity="1.000000" stroke="none" 
	d="
M386.313416,196.435944 
	C400.075836,196.059250 414.003479,196.081436 428.388184,196.080521 
	C428.016541,196.343292 427.188232,196.876480 426.358887,196.878082 
	C413.065521,196.903732 399.772064,196.861572 386.313416,196.435944 
z"/>
<path fill="#EDEDFE" opacity="1.000000" stroke="none" 
	d="
M308.569824,124.084427 
	C308.959717,133.429214 308.959717,142.987503 308.959717,153.156067 
	C304.651672,153.156067 300.738892,153.156067 296.360718,153.068481 
	C299.686096,152.485855 303.476868,151.990829 308.179962,151.376663 
	C308.179962,142.701187 308.179962,133.499542 308.569824,124.084427 
z"/>
<path fill="#153889" opacity="1.000000" stroke="none" 
	d="
M387.182770,212.418518 
	C388.751770,211.371994 390.267731,210.265594 391.799683,210.242966 
	C402.260284,210.088501 412.729645,210.357147 423.184662,210.069946 
	C427.662750,209.946945 428.484528,211.923508 428.330231,215.732147 
	C428.188721,219.225021 428.548218,222.313400 423.354156,222.164337 
	C413.397705,221.878616 403.418427,221.835510 393.466309,222.189453 
	C388.522980,222.365250 386.219666,221.018723 387.079651,215.845520 
	C387.241180,214.874054 387.125092,213.856445 387.182770,212.418518 
z"/>
</svg>